<svg id="Layer_1" data-name="Layer 1" xmlns="http://www.w3.org/2000/svg" viewBox="0 0 500 500"><defs><style>.cls-1{fill:#010101;}.cls-2,.cls-3{fill:#fff;}.cls-3{fill-rule:evenodd;}</style></defs><path class="cls-1" d="M250,0h0C388.07,0,500,111.93,500,250h0c0,138.07-111.93,250-250,250h0C111.93,500,0,388.07,0,250H0C0,111.93,111.93,0,250,0Z"/><rect class="cls-2" x="188.75" y="327.5" width="107.5" height="27.5"/><path class="cls-3" d="M33.75,152.5v175H95a87.5,87.5,0,0,0,0-175ZM71.25,190V290H95a50,50,0,0,0,0-100Z"/><path class="cls-3" d="M323.75,152.5v175H385a87.5,87.5,0,0,0,0-175Zm37.5,37.5V290H385a50,50,0,0,0,0-100Z"/></svg>
